<svg width="46" height="40" viewBox="0 0 46 40" fill="none" xmlns="http://www.w3.org/2000/svg">
<path d="M38.2639 1.57895V10C38.2639 10.8716 38.9712 11.5789 39.8428 11.5789C40.7144 11.5789 41.4218 10.8716 41.4218 10V1.57895C41.4218 0.707368 40.7144 0 39.8428 0C38.9712 0 38.2639 0.707368 38.2639 1.57895Z" fill="black"/>
<path d="M35.6323 7.36842H44.0533C44.9249 7.36842 45.6323 6.66105 45.6323 5.78947C45.6323 4.91789 44.9249 4.21053 44.0533 4.21053H35.6323C34.7607 4.21053 34.0533 4.91789 34.0533 5.78947C34.0533 6.66105 34.7607 7.36842 35.6323 7.36842Z" fill="black"/>
<path d="M27.2112 1.05263H16.9333C15.5376 1.05263 14.2618 1.84211 13.6386 3.08842L11.6449 7.0779C11.5544 7.25474 11.3734 7.36842 11.1734 7.36842H6.15861C2.96072 7.36842 0.369141 9.96 0.369141 13.1579V34.2105C0.369141 35.7453 0.979667 37.2189 2.06388 38.3053C3.15019 39.3895 4.62388 40 6.15861 40H39.8428C41.3776 40 42.8512 39.3895 43.9376 38.3053C45.0218 37.2189 45.6323 35.7453 45.6323 34.2105C45.6323 27.7958 45.6323 16.3158 45.6323 16.3158C45.6323 15.4442 44.9249 14.7368 44.0533 14.7368C43.1818 14.7368 42.4744 15.4442 42.4744 16.3158V34.2105C42.4744 34.9095 42.1965 35.5768 41.7039 36.0716C41.2091 36.5642 40.5418 36.8421 39.8428 36.8421H6.15861C5.45967 36.8421 4.7923 36.5642 4.29756 36.0716C3.80493 35.5768 3.52704 34.9095 3.52704 34.2105V13.1579C3.52704 11.7053 4.70598 10.5263 6.15861 10.5263H11.1734C12.5691 10.5263 13.8449 9.73684 14.4681 8.49053L16.4618 4.50105C16.5523 4.32421 16.7334 4.21053 16.9333 4.21053H27.2112C28.0828 4.21053 28.7902 3.50316 28.7902 2.63158C28.7902 1.76 28.0828 1.05263 27.2112 1.05263Z" fill="black"/>
<path d="M23.0007 12.6316C17.4807 12.6316 13.0007 17.1116 13.0007 22.6316C13.0007 28.1516 17.4807 32.6316 23.0007 32.6316C28.5207 32.6316 33.0007 28.1516 33.0007 22.6316C33.0007 17.1116 28.5207 12.6316 23.0007 12.6316ZM23.0007 15.7895C26.7776 15.7895 29.8428 18.8547 29.8428 22.6316C29.8428 26.4084 26.7776 29.4737 23.0007 29.4737C19.2239 29.4737 16.1586 26.4084 16.1586 22.6316C16.1586 18.8547 19.2239 15.7895 23.0007 15.7895Z" fill="black"/>
</svg>
